# xmcd CD database file
#
# Track frame offsets:
#	180
#	10242
#	43621
#	64541
#	80518
#	92972
#	112913
#	146456
#	169608
#	196726
#	217678
#	234895
#	260070
#	281415
#	298947
#
# Disc length: 4159 seconds
#
# Revision: 0
# Processed by: cddbd v1.4PL0 Copyright (c) Steve Scherf et al.
# Submitted via: CDex 1.50beta9
#
DISCID=c9103d0f
DTITLE=The Chicago Seven - Sunny Side
DYEAR=1900
DGENRE=Jazz
TTITLE0=ain't she sweet
TTITLE1=summertime
TTITLE2=lady madonna
TTITLE3=somewhere over the rainbow
TTITLE4=on the sunny side of the street
TTITLE5=celina
TTITLE6=sweet georgia brown
TTITLE7=chigago seven swing
TTITLE8=wonderful world
TTITLE9=route
TTITLE10=take me back to new orleans
TTITLE11=cheyenne
TTITLE12=you've got a friend
TTITLE13=let it be 
TTITLE14=yesterday
EXTD=
EXTT0=
EXTT1=
EXTT2=
EXTT3=
EXTT4=
EXTT5=
EXTT6=
EXTT7=
EXTT8=
EXTT9=
EXTT10=
EXTT11=
EXTT12=
EXTT13=
EXTT14=
PLAYORDER=
